<?xml version="1.0" encoding="UTF-8"?>
<svg id="Capa_1" xmlns="http://www.w3.org/2000/svg" version="1.1" viewBox="0 0 110 60.6">
  <!-- Generator: Adobe Illustrator 29.5.1, SVG Export Plug-In . SVG Version: 2.1.0 Build 141)  -->
  <defs>
    <style>
      .st0 {
        isolation: isolate;
      }

      .st1 {
        fill: #333;
      }

      .st2 {
        fill: #98c46c;
      }
    </style>
  </defs>
  <g id="Capa_2">
    <rect class="st2" x="1.5" y="1.9" width="107.1" height="56.9" rx="9.4" ry="9.4"/>
  </g>
  <g class="st0">
    <g class="st0">
      <path class="st1" d="M9.1,22.6h5v10.6h7v4.2h-11.9v-14.8Z"/>
      <path class="st1" d="M29.9,37.7c-1.1,0-2.2-.2-3.2-.6-1-.4-1.8-.9-2.6-1.6s-1.3-1.5-1.7-2.4c-.4-.9-.6-1.9-.6-3h0c0-1.1.2-2.1.6-3.1.4-.9,1-1.8,1.7-2.5.7-.7,1.6-1.3,2.6-1.7,1-.4,2.1-.6,3.2-.6s2.2.2,3.2.6,1.8.9,2.6,1.6c.7.7,1.3,1.5,1.7,2.4.4.9.6,1.9.6,3h0c0,1.1-.2,2.1-.6,3.1-.4.9-1,1.8-1.7,2.5-.7.7-1.6,1.2-2.6,1.7-1,.4-2.1.6-3.2.6ZM29.9,33.3c.5,0,.9,0,1.3-.3.4-.2.7-.4,1-.7s.5-.7.6-1c.1-.4.2-.8.2-1.3h0c0-.5,0-.9-.2-1.3-.1-.4-.4-.8-.6-1.1-.3-.3-.6-.6-1-.7-.4-.2-.8-.3-1.3-.3s-.9,0-1.3.3c-.4.2-.7.4-1,.7-.3.3-.5.7-.6,1-.1.4-.2.8-.2,1.3h0c0,.5,0,.9.2,1.3.1.4.4.8.6,1.1s.6.6,1,.7c.4.2.8.3,1.3.3Z"/>
      <path class="st1" d="M47.4,37.7c-1.2,0-2.2-.2-3.3-.6-1-.4-1.9-.9-2.7-1.6-.8-.7-1.3-1.5-1.8-2.4-.4-.9-.6-2-.6-3.1h0c0-1.1.2-2.2.6-3.1.4-.9,1-1.8,1.7-2.5s1.6-1.2,2.6-1.6c1-.4,2.1-.6,3.3-.6s2.4.2,3.5.6c1,.4,1.9.9,2.7,1.7l-2.8,3.3c-.5-.4-1-.7-1.5-1-.5-.2-1.1-.3-1.7-.3s-.9,0-1.3.3c-.4.2-.8.4-1.1.7-.3.3-.5.7-.7,1.1-.2.4-.2.9-.2,1.4h0c0,.6,0,1,.3,1.5.2.4.4.8.7,1.1.3.3.7.6,1.1.7.4.2.9.3,1.4.3s.8,0,1,0,.5-.1.7-.3v-1.5h-2.5v-3.2h7.2v6.9c-.8.7-1.8,1.2-2.9,1.6-1.1.4-2.3.6-3.7.6Z"/>
      <path class="st1" d="M63.1,37.7c-1.1,0-2.2-.2-3.2-.6s-1.8-.9-2.6-1.6c-.7-.7-1.3-1.5-1.7-2.4-.4-.9-.6-1.9-.6-3h0c0-1.1.2-2.1.6-3.1.4-.9,1-1.8,1.7-2.5.7-.7,1.6-1.3,2.6-1.7,1-.4,2.1-.6,3.2-.6s2.2.2,3.2.6,1.8.9,2.6,1.6c.7.7,1.3,1.5,1.7,2.4.4.9.6,1.9.6,3h0c0,1.1-.2,2.1-.6,3.1-.4.9-1,1.8-1.7,2.5-.7.7-1.6,1.2-2.6,1.7-1,.4-2.1.6-3.2.6ZM63.1,33.3c.5,0,.9,0,1.3-.3.4-.2.7-.4,1-.7s.5-.7.6-1c.1-.4.2-.8.2-1.3h0c0-.5,0-.9-.2-1.3-.1-.4-.4-.8-.6-1.1s-.6-.6-1-.7c-.4-.2-.8-.3-1.3-.3s-.9,0-1.3.3-.7.4-1,.7-.5.7-.6,1c-.1.4-.2.8-.2,1.3h0c0,.5,0,.9.2,1.3.1.4.4.8.6,1.1s.6.6,1,.7c.4.2.8.3,1.3.3Z"/>
      <path class="st1" d="M84.8,37.7c-1.1,0-2.1-.2-3-.6-.9-.4-1.6-1-2.2-1.7-.6-.7-1.1-1.5-1.4-2.5s-.5-1.9-.5-2.9h0c0-1.1.2-2,.5-3,.3-.9.8-1.8,1.4-2.5.6-.7,1.4-1.3,2.2-1.7.9-.4,1.9-.6,3-.6s2.1.2,3,.6c.9.4,1.6,1,2.2,1.7.6.7,1.1,1.5,1.4,2.5s.5,1.9.5,2.9h0c0,1.1-.2,2-.5,3-.3.9-.8,1.8-1.4,2.5-.6.7-1.4,1.3-2.3,1.7-.9.4-1.9.6-3,.6ZM84.9,33.4c.7,0,1.2-.3,1.6-.9s.6-1.4.6-2.5h0c0-.6,0-1-.2-1.4-.1-.4-.3-.8-.5-1.1s-.4-.5-.7-.7c-.3-.2-.6-.3-.9-.3-.7,0-1.2.3-1.6.9-.4.6-.6,1.4-.6,2.5h0c0,.6,0,1,.2,1.4.1.4.3.8.5,1.1.2.3.4.5.7.7.3.2.6.3.9.3Z"/>
      <path class="st1" d="M95.7,26.8l-2.4.5-.9-3.7,4.4-1.2h3.8v14.9h-4.9v-10.6Z"/>
    </g>
  </g>
</svg>