<?xml version="1.0" encoding="UTF-8"?>
<svg id="Capa_1" xmlns="http://www.w3.org/2000/svg" version="1.1" viewBox="0 0 110 60.6">
  <!-- Generator: Adobe Illustrator 29.5.1, SVG Export Plug-In . SVG Version: 2.1.0 Build 141)  -->
  <defs>
    <style>
      .st0 {
        fill: #333;
      }

      .st1 {
        fill: #98c46c;
      }
    </style>
  </defs>
  <g id="Capa_2">
    <rect class="st1" x="1.5" y="1.9" width="107.1" height="56.9" rx="9.4" ry="9.4"/>
  </g>
  <g>
    <path class="st0" d="M7,22.6h5v10.6h7v4.2H7v-14.9Z"/>
    <path class="st0" d="M27.8,37.8c-1.1,0-2.2-.2-3.2-.6-1-.4-1.8-.9-2.6-1.6-.7-.7-1.3-1.5-1.7-2.5-.4-.9-.6-2-.6-3h0c0-1.1.2-2.1.6-3.1.4-.9,1-1.8,1.7-2.5.7-.7,1.6-1.3,2.6-1.7,1-.4,2.1-.6,3.2-.6s2.2.2,3.2.6c1,.4,1.8.9,2.6,1.6.7.7,1.3,1.5,1.7,2.5.4.9.6,1.9.6,3h0c0,1.1-.2,2.1-.6,3.1-.4.9-1,1.8-1.7,2.5-.7.7-1.6,1.3-2.6,1.7-1,.4-2.1.6-3.2.6ZM27.8,33.4c.5,0,.9,0,1.3-.3.4-.2.7-.4,1-.7.3-.3.5-.7.6-1.1.1-.4.2-.8.2-1.3h0c0-.5,0-.9-.2-1.3s-.4-.8-.6-1.1c-.3-.3-.6-.6-1-.7-.4-.2-.8-.3-1.3-.3s-.9,0-1.3.3c-.4.2-.7.4-1,.7-.3.3-.5.7-.6,1.1-.1.4-.2.8-.2,1.3h0c0,.5,0,.9.2,1.3s.4.8.6,1.1.6.6,1,.7c.4.2.8.3,1.3.3Z"/>
    <path class="st0" d="M45.3,37.8c-1.2,0-2.2-.2-3.3-.6-1-.4-1.9-.9-2.7-1.6-.8-.7-1.4-1.5-1.8-2.4s-.6-2-.6-3.1h0c0-1.1.2-2.2.6-3.1.4-.9,1-1.8,1.7-2.5.7-.7,1.6-1.2,2.6-1.6,1-.4,2.1-.6,3.3-.6s2.4.2,3.5.6c1,.4,1.9.9,2.7,1.7l-2.8,3.4c-.5-.4-1-.7-1.5-1-.5-.2-1.1-.3-1.7-.3s-.9,0-1.3.3c-.4.2-.8.4-1.1.7-.3.3-.5.7-.7,1.1-.2.4-.2.9-.2,1.4h0c0,.6,0,1,.3,1.5.2.4.4.8.7,1.1.3.3.7.6,1.1.7.4.2.9.3,1.4.3s.8,0,1,0c.3,0,.5-.1.7-.3v-1.5h-2.5v-3.2h7.2v6.9c-.8.7-1.8,1.2-2.9,1.6-1.1.4-2.3.6-3.7.6Z"/>
    <path class="st0" d="M61,37.8c-1.1,0-2.2-.2-3.2-.6-1-.4-1.8-.9-2.6-1.6-.7-.7-1.3-1.5-1.7-2.5-.4-.9-.6-2-.6-3h0c0-1.1.2-2.1.6-3.1.4-.9,1-1.8,1.7-2.5.7-.7,1.6-1.3,2.6-1.7s2.1-.6,3.2-.6,2.2.2,3.2.6c1,.4,1.8.9,2.6,1.6s1.3,1.5,1.7,2.5c.4.9.6,1.9.6,3h0c0,1.1-.2,2.1-.6,3.1-.4.9-1,1.8-1.7,2.5-.7.7-1.6,1.3-2.6,1.7s-2.1.6-3.2.6ZM61.1,33.4c.5,0,.9,0,1.3-.3.4-.2.7-.4,1-.7.3-.3.5-.7.6-1.1.1-.4.2-.8.2-1.3h0c0-.5,0-.9-.2-1.3s-.4-.8-.6-1.1c-.3-.3-.6-.6-1-.7-.4-.2-.8-.3-1.3-.3s-.9,0-1.3.3c-.4.2-.7.4-1,.7-.3.3-.5.7-.6,1.1-.1.4-.2.8-.2,1.3h0c0,.5,0,.9.2,1.3.1.4.4.8.6,1.1.3.3.6.6,1,.7.4.2.8.3,1.3.3Z"/>
    <path class="st0" d="M82.8,37.8c-1.1,0-2.1-.2-3-.6-.9-.4-1.6-1-2.2-1.7-.6-.7-1.1-1.5-1.4-2.5-.3-.9-.5-1.9-.5-2.9h0c0-1.1.2-2,.5-3,.3-.9.8-1.8,1.4-2.5.6-.7,1.4-1.3,2.2-1.7.9-.4,1.9-.6,3-.6s2.1.2,3,.6c.9.4,1.6,1,2.2,1.7.6.7,1.1,1.5,1.4,2.5s.5,1.9.5,2.9h0c0,1.1-.2,2-.5,3-.3.9-.8,1.8-1.4,2.5-.6.7-1.4,1.3-2.3,1.7-.9.4-1.9.6-3,.6ZM82.8,33.4c.7,0,1.2-.3,1.6-.9.4-.6.6-1.4.6-2.5h0c0-.6,0-1-.2-1.4-.1-.4-.3-.8-.5-1.1s-.4-.5-.7-.7c-.3-.2-.6-.3-.9-.3-.7,0-1.2.3-1.6.9-.4.6-.6,1.4-.6,2.5h0c0,.6,0,1,.2,1.4s.3.8.5,1.1.4.5.7.7c.3.2.6.3.9.3Z"/>
    <path class="st0" d="M90.9,33.8l6.2-4.4c.5-.3.8-.6,1-.9.2-.3.3-.6.3-.9s-.1-.6-.4-.8c-.2-.2-.6-.3-1-.3s-.9.1-1.3.4-1,.8-1.6,1.4l-3.3-2.8c.4-.5.9-1,1.3-1.4.4-.4.9-.8,1.5-1,.5-.3,1.1-.5,1.7-.6.6-.1,1.3-.2,2.1-.2s1.6.1,2.3.4c.7.2,1.3.6,1.8,1s.9.9,1.2,1.5.4,1.2.4,2h0c0,.6,0,1.1-.2,1.6s-.3.9-.6,1.2c-.3.4-.6.7-1,1-.4.3-.8.6-1.2.9l-2.7,1.7h5.8v3.9h-12.5v-3.6Z"/>
  </g>
</svg>