<?xml version="1.0" encoding="UTF-8"?>
<svg xmlns="http://www.w3.org/2000/svg" version="1.1" viewBox="0 0 22 31">
  <defs>
    <style>
      .cls-1 {
        fill: #3a3e41;
      }
    </style>
  </defs>
  <!-- Generator: Adobe Illustrator 28.6.0, SVG Export Plug-In . SVG Version: 1.2.0 Build 709)  -->
  <g>
    <g id="Capa_1">
      <g id="Formacion">
        <g id="Group_16">
          <g id="Tema_9">
            <g id="Group_22">
              <g id="_x31_2-Lock">
                <path id="Vector" class="cls-1" d="M18.7,11.1v-3.6c0-2-.8-3.8-2.2-5.2C15.2.9,13.3.1,11.3,0h-.6c-2,0-3.8.8-5.2,2.2-1.4,1.4-2.2,3.3-2.2,5.2v3.6c-.9,0-1.7.3-2.3,1C.3,12.7,0,13.5,0,14.4v10.2c0,1.7.7,3.3,1.8,4.4,1.2,1.2,2.8,1.8,4.4,1.8h9.5c1.7,0,3.3-.7,4.4-1.8,1.2-1.2,1.8-2.8,1.8-4.4v-10.2c0-.9-.3-1.7-1-2.3-.6-.6-1.5-1-2.3-1ZM5.5,7.5c0-1.4.5-2.7,1.5-3.7,1-1,2.3-1.5,3.7-1.5h.6c1.4,0,2.7.5,3.7,1.5,1,1,1.5,2.3,1.5,3.7v3.6H5.5v-3.6ZM19.8,24.6c0,1.1-.4,2.1-1.2,2.9-.8.8-1.8,1.2-2.9,1.2H6.3c-1.1,0-2.1-.4-2.9-1.2-.8-.8-1.2-1.8-1.2-2.9v-10.2c0-.3.1-.6.3-.8s.5-.3.8-.3h15.4c.3,0,.6.1.8.3.2.2.3.5.3.8v10.2Z"/>
                <path id="Vector_2" class="cls-1" d="M12.1,20.7v3.6c0,.3-.1.6-.3.8-.2.2-.5.3-.8.3s-.6-.1-.8-.3c-.2-.2-.3-.5-.3-.8v-3.6c-.4-.2-.7-.6-.9-1.1-.2-.4-.2-.9,0-1.4.1-.5.4-.9.8-1.2.4-.3.9-.5,1.3-.5s1,.2,1.3.5c.4.3.7.7.8,1.2.1.5,0,1,0,1.4-.2.4-.5.8-.9,1.1Z"/>
              </g>
            </g>
          </g>
        </g>
      </g>
    </g>
  </g>
</svg>